# Blender v3.1.2 OBJ File: 'Octahedron.blend'
# www.blender.org
mtllib Octahedron.mtl
o Cube
v 0.000000 1.000000 0.000000
v 0.000000 -1.000000 0.000000
v 0.000000 0.000000 1.000000
v 1.000000 0.000000 0.000000
v 0.000000 0.000000 -1.000000
v -1.000000 0.000000 0.000000
vt 0.000000 0.000000
vt 0.000000 0.000000
vt 0.000000 0.000000
vt 0.000000 0.000000
vt 0.000000 0.000000
vt 0.000000 0.000000
vn 0.5774 -0.5774 -0.5774
vn 0.5774 -0.5774 0.5774
vn -0.5774 -0.5774 -0.5774
vn -0.5774 0.5774 0.5774
vn 0.5774 0.5774 0.5774
vn -0.5774 -0.5774 0.5774
vn 0.5774 0.5774 -0.5774
usemtl Material
s off
f 6/1/1 1/2/1 3/3/1
f 3/3/2 2/4/2 4/5/2
f 3/3/3 1/2/3 4/5/3
f 2/4/4 4/5/4 5/6/4
f 5/6/5 6/1/5 2/4/5
f 4/5/6 1/2/6 5/6/6
f 5/6/2 1/2/2 6/1/2
f 3/3/7 2/4/7 6/1/7
